HIERARCHY
ROOT Hips
{
	OFFSET 0.000000 0.000000 0.000000
	CHANNELS 6 Xposition Yposition Zposition Zrotation Yrotation Xrotation 
	JOINT LowerBack
	{
		OFFSET 0.000000 0.000000 0.000000
		CHANNELS 3 Zrotation Yrotation Xrotation
		JOINT Spine
		{
			OFFSET 0.028270 2.035590 -0.193380
			CHANNELS 3 Zrotation Yrotation Xrotation
			JOINT Spine1
			{
				OFFSET 0.056720 2.048850 -0.042750
				CHANNELS 3 Zrotation Yrotation Xrotation
				JOINT Neck
				{
					OFFSET 0.000000 0.000000 0.000000
					CHANNELS 3 Zrotation Yrotation Xrotation
					JOINT Neck1
					{
						OFFSET -0.054170 1.746240 0.172020
						CHANNELS 3 Zrotation Yrotation Xrotation
						JOINT Head
						{
							OFFSET 0.104070 1.761360 -0.123970
							CHANNELS 3 Zrotation Yrotation Xrotation
							End Site
							{
								OFFSET 0.000000 0.000000 0.000000
							}
						}
					}
				}
				JOINT LeftShoulder
				{
					OFFSET 0.000000 0.000000 0.000000
					CHANNELS 3 Zrotation Yrotation Xrotation
					JOINT LeftArm
					{
						OFFSET 3.362410 1.200890 -0.311210
						CHANNELS 3 Zrotation Yrotation Xrotation
						JOINT LeftForeArm
						{
							OFFSET 4.983000 -0.000000 -0.000000
							CHANNELS 3 Zrotation Yrotation Xrotation
							JOINT LeftHand
							{
								OFFSET 3.483560 -0.000000 -0.000000
								CHANNELS 3 Zrotation Yrotation Xrotation
								JOINT LeftFingerBase
								{
									OFFSET 0.000000 0.000000 0.000000
									CHANNELS 3 Zrotation Yrotation Xrotation
									JOINT LeftHandIndex1
									{
										OFFSET 0.715260 -0.000000 -0.000000
										CHANNELS 3 Zrotation Yrotation Xrotation
										End Site
										{
											OFFSET 0.000000 0.000000 0.000000
										}
									}
								}
								JOINT LThumb
								{
									OFFSET 0.000000 0.000000 0.000000
									CHANNELS 3 Zrotation Yrotation Xrotation
									End Site
									{
										OFFSET 0.000000 0.000000 0.000000
									}
								}
							}
						}
					}
				}
				JOINT RightShoulder
				{
					OFFSET 0.000000 0.000000 0.000000
					CHANNELS 3 Zrotation Yrotation Xrotation
					JOINT RightArm
					{
						OFFSET -3.136600 1.374050 -0.404650
						CHANNELS 3 Zrotation Yrotation Xrotation
						JOINT RightForeArm
						{
							OFFSET -5.241900 -0.000000 -0.000000
							CHANNELS 3 Zrotation Yrotation Xrotation
							JOINT RightHand
							{
								OFFSET -3.444170 -0.000000 -0.000000
								CHANNELS 3 Zrotation Yrotation Xrotation
								JOINT RightFingerBase
								{
									OFFSET 0.000000 0.000000 0.000000
									CHANNELS 3 Zrotation Yrotation Xrotation
									JOINT RightHandIndex1
									{
										OFFSET -0.622530 -0.000000 -0.000000
										CHANNELS 3 Zrotation Yrotation Xrotation
										End Site
										{
											OFFSET 0.000000 0.000000 0.000000
										}
									}
								}
								JOINT RThumb
								{
									OFFSET 0.000000 0.000000 0.000000
									CHANNELS 3 Zrotation Yrotation Xrotation
									End Site
									{
										OFFSET 0.000000 0.000000 0.000000
									}
								}
							}
						}
					}
				}
			}
		}
	}
}
}
MOTION
Frames: 6
Frame Time: 0.008333
0.527321 17.236282 -0.922999 -177.889320 82.844851 -174.582814 5.742207 -6.538090 -4.189297 1.105658 -7.102748 -3.041370 -5.028643 -7.084745 3.062274 9.676890 -22.753068 -11.459924 -2.112203 -0.111613 -0.921937 0.000000 0.000000 0.000000 4.902843 10.889259 0.726407 -39.578249 3.467638 -2.416253 -1.205057 -65.410359 -0.019838 5.768785 -1.962830 -0.113582 -0.129735 0.269832 0.000000 0.000000 0.000000 0.000000 0.000000 0.000000 0.000000 14.501610 -21.842556 0.191177 71.328122 -14.508870 -14.497840 4.269609 21.205738 0.013422 2.382609 5.240369 0.105000 0.117142 -0.041717 -0.000000 0.000000 0.000000 0.000000 0.000000 0.000000 0.000000 
0.712675 17.243585 -0.920539 -176.162152 82.940858 -172.982712 6.006276 -6.398274 -4.065508 1.131388 -6.979640 -3.040733 -5.092268 -6.961313 2.992353 9.819810 -22.539295 -11.467076 -2.152966 -0.115513 -0.924847 0.000000 0.000000 0.000000 4.895649 10.896500 0.699742 -40.425085 4.269785 -1.871925 -1.220761 -65.492579 -0.018534 5.700376 -1.992315 -0.113369 -0.130567 0.261148 -0.000000 0.000000 0.000000 0.000000 0.000000 0.000000 0.000000 14.708293 -21.501952 0.213816 70.884561 -13.556130 -14.156397 4.234295 21.259923 0.013142 2.074219 5.147573 0.089209 0.117829 -0.043245 -0.000000 0.000000 0.000000 0.000000 0.000000 0.000000 0.000000 
0.894462 17.250030 -0.917913 -174.682949 83.039776 -171.595399 6.221085 -6.259674 -3.945871 1.144770 -6.854140 -3.038538 -5.164118 -6.835348 2.923786 9.974946 -22.269342 -11.469781 -2.200383 -0.120002 -0.926754 0.000000 0.000000 0.000000 4.870680 10.929244 0.679925 -41.288262 5.071301 -1.315905 -1.240226 -65.484691 -0.017167 5.623749 -1.991963 -0.111358 -0.131524 0.251298 -0.000000 0.000000 0.000000 0.000000 0.000000 0.000000 0.000000 14.946820 -21.106268 0.236183 70.459488 -12.514706 -13.797555 4.197894 21.247493 0.012782 1.737858 5.034593 0.072416 0.118539 -0.044759 -0.000000 0.000000 0.000000 0.000000 0.000000 0.000000 0.000000 
1.072787 17.255985 -0.915101 -173.476744 83.133889 -170.448332 6.385306 -6.123989 -3.832852 1.145890 -6.728050 -3.035421 -5.243761 -6.708643 2.856059 10.135242 -21.936246 -11.463679 -2.256111 -0.125286 -0.926471 0.000000 0.000000 0.000000 4.818492 10.986962 0.667990 -42.159812 5.857891 -0.752545 -1.264609 -65.372758 -0.015737 5.537444 -1.963799 -0.107749 -0.132562 0.240256 0.000000 0.000000 0.000000 0.000000 0.000000 0.000000 0.000000 15.215727 -20.649228 0.256363 70.058084 -11.401330 -13.436505 4.160228 21.181541 0.012345 1.378884 4.905493 0.055021 0.119232 -0.046295 -0.000000 0.000000 0.000000 0.000000 0.000000 0.000000 0.000000 
1.247854 17.261887 -0.912158 -172.576624 83.215120 -169.577491 6.496772 -5.992621 -3.727851 1.135210 -6.602714 -3.031421 -5.328254 -6.582683 2.790954 10.294421 -21.552276 -11.447895 -2.318971 -0.131266 -0.923764 0.000000 0.000000 0.000000 4.733129 11.068936 0.663296 -43.039923 6.612972 -0.189919 -1.294982 -65.139873 -0.014256 5.440735 -1.910158 -0.102642 -0.133610 0.228087 0.000000 0.000000 0.000000 0.000000 0.000000 0.000000 0.000000 15.508000 -20.146010 0.273162 69.677565 -10.211448 -13.034105 4.120716 21.059062 0.011857 0.985873 4.774975 0.037026 0.119986 -0.047850 -0.000000 0.000000 0.000000 0.000000 0.000000 0.000000 0.000000 
1.419778 17.268166 -0.909088 -172.006225 83.275824 -169.012618 6.554985 -5.865779 -3.630371 1.113021 -6.478345 -3.026965 -5.415881 -6.457794 2.727349 10.445268 -21.113602 -11.417998 -2.389230 -0.138019 -0.917441 0.000000 0.000000 0.000000 4.613726 11.168653 0.665912 -43.933030 7.325635 0.362231 -1.332609 -64.767795 -0.012754 5.337630 -1.835834 -0.096538 -0.134654 0.214898 0.000000 0.000000 0.000000 0.000000 0.000000 0.000000 0.000000 15.816237 -19.593171 0.285966 69.326587 -8.963611 -12.609475 4.079412 20.895806 0.011326 0.571959 4.644706 0.019030 0.120736 -0.049456 -0.000000 0.000000 0.000000 0.000000 0.000000 0.000000 0.000000 
